<?xml version="1.0" encoding="UTF-8" standalone="no"?>
<!-- Created with Inkscape (http://www.inkscape.org/) -->

<svg
   width="121.41219mm"
   height="120.15071mm"
   viewBox="0 0 121.41219 120.15071"
   version="1.1"
   id="svg480"
   inkscape:version="1.2.2 (b0a8486541, 2022-12-01)"
   sodipodi:docname="drawing.svg"
   xmlns:inkscape="http://www.inkscape.org/namespaces/inkscape"
   xmlns:sodipodi="http://sodipodi.sourceforge.net/DTD/sodipodi-0.dtd"
   xmlns:xlink="http://www.w3.org/1999/xlink"
   xmlns="http://www.w3.org/2000/svg"
   xmlns:svg="http://www.w3.org/2000/svg">
  <sodipodi:namedview
     id="namedview482"
     pagecolor="#ffffff"
     bordercolor="#666666"
     borderopacity="1.0"
     inkscape:showpageshadow="2"
     inkscape:pageopacity="0.0"
     inkscape:pagecheckerboard="0"
     inkscape:deskcolor="#d1d1d1"
     inkscape:document-units="mm"
     showgrid="false"
     inkscape:zoom="4.5964158"
     inkscape:cx="205.81254"
     inkscape:cy="287.94175"
     inkscape:window-width="3840"
     inkscape:window-height="2084"
     inkscape:window-x="3840"
     inkscape:window-y="0"
     inkscape:window-maximized="1"
     inkscape:current-layer="layer1" />
  <defs
     id="defs477">
    <radialGradient
       id="a"
       cx="22.431999"
       cy="3.493"
       r="21.679001"
       gradientTransform="matrix(1.0856,0,0,1.0856,-4.4842,-2.9511)"
       gradientUnits="userSpaceOnUse">
      <stop
         stop-color="#e44857"
         offset="0"
         id="stop1728" />
      <stop
         stop-color="#c711e1"
         offset=".469"
         id="stop1730" />
      <stop
         stop-color="#7f52ff"
         offset="1"
         id="stop1732" />
    </radialGradient>
    <linearGradient
       inkscape:collect="always"
       xlink:href="#a"
       id="linearGradient2322"
       x1="146.64822"
       y1="169.37013"
       x2="25.34322"
       y2="289.4465"
       gradientUnits="userSpaceOnUse" />
  </defs>
  <g
     inkscape:label="Layer 1"
     inkscape:groupmode="layer"
     id="layer1"
     transform="translate(-25.236031,-169.37014)">
    <path
       style="fill:url(#linearGradient2322);fill-opacity:1;stroke-width:0.28728458;font-variation-settings:normal;opacity:1;vector-effect:none;stroke-linecap:butt;stroke-linejoin:miter;stroke-miterlimit:4;stroke-dasharray:none;stroke-dashoffset:0;stroke-opacity:1;-inkscape-stroke:none;stop-color:#000000;stop-opacity:1"
       d="m 25.34316,289.44649 c -0.0913,-0.34386 -0.15311,-89.2793 -0.0633,-91.01667 l 0.11971,-2.3151 h 8.71181 c 4.7915,0 8.69771,0.0893 8.68048,0.19844 -0.15253,0.96606 0.0851,11.44323 0.25954,11.44323 0.50403,0 7.0392,-9.4014 10.09054,-14.51608 3.40431,-5.70633 4.73997,-7.87774 5.204,-8.46024 l 0.49312,-0.61902 2.05254,2.33881 c 1.1289,1.28635 2.25806,2.78223 2.50925,3.32418 0.51038,1.10115 0.71586,1.21454 0.97124,0.53599 0.44548,-1.1836 2.34996,-4.01275 2.59804,-3.85943 0.16607,0.10264 0.19698,0.0422 0.0774,-0.15125 -0.1095,-0.17718 -0.0291,-0.523 0.17872,-0.76849 0.2078,-0.24549 1.36745,-2.29182 2.57699,-4.54739 2.14149,-3.99347 4.73348,-8.18505 5.06853,-8.19643 1.14825,-0.039 6.84517,6.46711 6.84517,7.81748 0,1.10547 0.18728,1.22084 0.89173,0.54933 4.28116,-4.081 10.38973,-9.37149 10.6427,-9.2174 0.0732,0.0446 0.83372,-0.52582 1.68998,-1.2676 l 1.55682,-1.34871 3.39116,4.18933 c 1.86513,2.30413 4.22459,5.24019 5.24323,6.52458 1.01865,1.28439 2.66282,3.33308 3.65371,4.55265 1.04626,1.2877 1.72244,2.3455 1.61276,2.52295 -0.11229,0.1817 -0.0732,0.23408 0.0965,0.1292 0.29248,-0.18075 6.64901,7.35945 6.98974,8.29131 0.0989,0.27059 9.47434,0.51002 20.52817,0.52425 l 8.01007,0.0103 -0.0422,14.26086 -0.0422,14.26087 -2.27928,-2.19017 c -1.25361,-1.20461 -2.75553,-2.58504 -3.33761,-3.06764 -0.58209,-0.48261 -2.37614,-2.16062 -3.98678,-3.72893 -2.09162,-2.03663 -3.35804,-3.04814 -4.43177,-3.53971 -1.69243,-0.77482 -1.79389,-0.97604 -0.81538,-1.61719 1.51118,-0.99016 3.85314,0.22729 7.79474,4.05205 2.46225,2.38927 2.90063,2.65599 3.7988,2.31133 0.73532,-0.28217 0.41944,-0.70817 -2.62757,-3.54356 -1.64201,-1.52797 -2.93942,-2.93314 -2.88314,-3.1226 0.0563,-0.18946 5.3e-4,-0.28158 -0.12382,-0.20471 -0.12437,0.0769 -0.88904,-0.21927 -1.69926,-0.65811 -3.15489,-1.70876 -8.42949,-0.8671 -11.34537,1.81037 l -0.70913,0.65115 -0.0159,32.18122 c -0.0163,33.00993 0.0355,35.75309 0.67458,35.75309 0.19947,0 0.36268,-0.10571 0.36268,-0.2349 0,-0.1292 1.08308,-1.58771 2.40685,-3.24115 3.72503,-4.65273 5.8375,-7.29022 6.90791,-8.6248 4.92187,-6.13654 3.95467,-10.72745 -4.26992,-20.26755 -2.73074,-3.16753 -3.14017,-3.85979 -2.9595,-5.00399 0.0172,-0.10915 -0.0948,-0.19844 -0.24887,-0.19844 -0.15411,0 -0.20661,-0.11906 -0.11667,-0.26459 0.0899,-0.14552 0.0374,-0.26458 -0.11668,-0.26458 -0.15411,0 -0.2802,-0.1311 -0.2802,-0.29133 0,-0.55929 10.19485,10.13872 11.4442,12.00903 2.30461,3.45004 2.98847,6.38149 2.20349,9.44556 -0.508,1.98291 -2.31632,5.46101 -2.78397,5.35466 -0.17585,-0.04 -0.24109,0.0545 -0.14498,0.21003 0.2291,0.3707 -0.37981,1.097 -0.73543,0.87721 -0.15653,-0.0967 -0.19673,-0.0428 -0.0931,0.12482 0.19857,0.3213 -2.7074,4.33996 -3.00521,4.1559 -0.10021,-0.0619 -0.1822,0.0403 -0.1822,0.22729 0,0.53619 -2.78428,3.87034 -3.07961,3.68781 -0.14594,-0.0902 -0.18551,-0.0348 -0.0879,0.12308 0.21333,0.34517 -3.99359,6.57285 -4.36984,6.46886 -0.14469,-0.04 -0.1842,0.0549 -0.0878,0.21087 0.0964,0.15596 -0.0781,0.82252 -0.38772,1.48124 -0.30963,0.65871 -0.63454,1.57586 -0.72202,2.03809 -0.36057,1.90524 0.49938,1.76646 -10.94631,1.76646 h -10.31401 l 0.0145,-13.55989 0.0145,-13.5599 -2.58965,-0.0832 c -3.64339,-0.11701 -5.81153,0.13593 -5.97217,0.69674 -0.0701,0.24462 -1.11209,1.75444 -2.3156,3.35517 -1.20351,1.60073 -2.72142,3.71142 -3.37314,4.69042 -0.65172,0.979 -1.3067,1.70474 -1.45553,1.61276 -0.16103,-0.0995 -0.18925,-0.0356 -0.0697,0.15782 0.33844,0.5476 -0.8805,1.54933 -2.80322,2.30368 -2.1078,0.82696 -2.04789,0.68348 -0.98631,2.36217 3.12925,4.94832 5.11099,6.9589 6.26891,6.36012 0.71219,-0.36829 0.77559,-0.34484 1.78195,0.65891 1.49945,1.49557 3.94041,3.38177 5.50964,4.25747 l 1.3547,0.75597 -19.18229,-0.0411 c -12.31068,-0.0264 -18.94534,-0.13022 -18.52083,-0.28983 1.16917,-0.43959 3.97016,-1.92167 3.90222,-2.06477 -0.0362,-0.0762 -1.00607,-1.80258 -2.15534,-3.83646 -3.19693,-5.65768 -5.34696,-9.47211 -7.3041,-12.95838 -0.98032,-1.74625 -2.59375,-4.60375 -3.58541,-6.35 -0.99166,-1.74625 -2.39337,-4.24656 -3.11492,-5.55625 -0.72155,-1.30969 -1.93457,-3.45281 -2.69559,-4.7625 -0.76103,-1.30968 -1.46298,-2.63839 -1.5599,-2.95267 -0.75085,-2.43494 -0.81674,-0.94608 -0.76691,17.32889 0.0276,10.13766 -0.0138,19.11672 -0.0921,19.95347 l -0.14238,1.52135 h -8.57299 c -4.71513,0 -8.58088,-0.0298 -8.59053,-0.0661 z m 82.89067,-15.41189 c -0.0563,-9.38382 0.001,-12.30322 0.24142,-12.30322 0.56856,0 2.81305,1.59336 3.88944,2.76109 3.66261,3.97347 4.50163,7.12682 4.53252,17.03492 0.009,2.95225 0.0178,2.99376 0.60465,2.91042 1.24797,-0.17724 0.9201,-11.76073 -0.44663,-15.77908 -1.04023,-3.05842 -5.13367,-7.68519 -7.64926,-8.64591 l -1.23067,-0.47 0.009,-2.41144 0.009,-2.41145 0.52353,0.66145 c 1.76655,2.23201 2.49901,2.9675 5.63874,5.6621 1.91258,1.64144 3.64083,3.18209 3.84054,3.42367 0.45779,0.55373 0.79125,0.55406 1.40198,10e-4 0.74139,-0.67095 0.59354,-1.04956 -0.77291,-1.97934 -0.69123,-0.47033 -1.31631,-0.92267 -1.38907,-1.00519 -0.0728,-0.0825 -1.02526,-0.9111 -2.11666,-1.84127 -2.57916,-2.19814 -3.73779,-3.46161 -5.19834,-5.66872 -2.09883,-3.17156 -1.94543,-1.22686 -1.94543,-24.66229 v -21.05931 l -0.80685,0.0829 -0.80685,0.0829 -0.008,26.19375 c -0.005,14.40657 0.001,31.93852 0.0131,38.9599 l 0.0216,12.76614 0.8599,10e-5 0.85989,9e-5 z m -39.8049,10.83282 c 0.75811,-0.531 0.74217,-0.72321 -0.17036,-2.05399 -0.41712,-0.6083 -2.00648,-3.42772 -3.53191,-6.26538 -1.52543,-2.83766 -3.22677,-5.93328 -3.78075,-6.87917 -0.55399,-0.94588 -2.01322,-3.50573 -3.24274,-5.68854 -1.22953,-2.18281 -2.33075,-4.08781 -2.44717,-4.23333 -0.29532,-0.36916 -5.02445,-8.89686 -5.02445,-9.06023 0,-0.0733 -0.53578,-1.01568 -1.19062,-2.09429 -1.3667,-2.25114 -1.35073,-2.17482 -0.69542,-3.32337 2.0865,-3.65701 3.39359,-5.79034 5.23299,-8.54086 1.1678,-1.74625 2.87616,-4.36562 3.79635,-5.82083 1.72547,-2.72869 3.28853,-5.13652 8.50192,-13.09688 1.66782,-2.54661 3.54196,-5.46364 4.16475,-6.48229 l 1.13235,-1.85208 h 16.91319 16.9132 l 2e-5,-0.8599 2e-5,-0.85989 H 87.94148 70.88267 l -0.80983,0.85989 c -0.44541,0.47294 -1.63204,2.16959 -2.63696,3.77031 -1.00493,1.60073 -1.9621,2.87771 -2.12707,2.83772 -0.16496,-0.04 -0.22599,0.0469 -0.13564,0.19312 0.15225,0.24634 -2.82037,5.29787 -3.82155,6.49416 -0.24358,0.29105 -1.14859,1.71633 -2.01115,3.1673 -2.39145,4.02282 -4.8883,7.68901 -5.18136,7.60792 -0.1445,-0.04 -0.19298,0.0401 -0.10775,0.17805 0.0852,0.13791 -1.23133,2.37329 -2.92571,4.96749 -1.69438,2.59421 -3.48455,5.33658 -3.97817,6.09415 -0.49362,0.75757 -1.01367,1.44921 -1.15566,1.53697 -0.48322,0.29864 -0.25914,0.86393 1.6391,4.13498 1.04351,1.79816 2.47366,4.31997 3.17811,5.604 0.70445,1.28403 3.25964,5.8084 5.6782,10.05416 2.41856,4.24576 5.04109,8.85066 5.82783,10.23311 0.78675,1.38244 2.26343,4.15065 3.28151,6.15156 1.97915,3.88975 1.94327,3.84888 2.83236,3.22614 z m -36.88357,-1.20869 c 0.25229,-1.26148 0.19714,-83.78897 -0.0561,-83.94549 -0.12181,-0.0753 -0.479,0.0435 -0.79375,0.26398 l -0.57229,0.40084 v 41.87736 c 0,23.03254 0.0794,41.95673 0.17639,42.05374 0.46074,0.46074 1.08913,0.13265 1.24575,-0.65043 z m 6.06742,-3.05606 c 0.004,-0.41103 -0.0383,-14.43952 -0.094,-31.17441 -0.0944,-28.3565 -0.0704,-30.4847 0.35263,-31.27384 0.75201,-1.40272 0.31954,-2.44088 -0.86077,-2.06626 -1.36253,0.43245 -1.33119,-0.34919 -1.33012,33.17397 10e-4,30.99767 0.003,31.12597 0.54818,32.01995 0.64122,1.05178 1.37076,0.69367 1.38414,-0.67941 z m 45.3393,-8.18447 c 0.3155,-0.0846 0.71753,-0.50124 0.89339,-0.92581 0.30085,-0.72631 1.97236,-2.98295 6.14389,-8.29462 1.48295,-1.88825 1.74426,-2.36502 1.52292,-2.7786 -0.3034,-0.56691 -1.14422,-6.25251 -0.99213,-6.70878 0.0547,-0.16416 0.76247,1.00785 1.57277,2.60449 l 1.47328,2.90296 4.36343,0.0724 c 4.84988,0.0805 4.79182,0.10213 4.50267,-1.67965 l -0.15843,-0.97629 -1.7953,0.15051 c -2.72481,0.22844 -3.51383,-0.0905 -4.65247,-1.88077 -0.52718,-0.82887 -1.73316,-2.6805 -2.67995,-4.11474 -1.52521,-2.31044 -2.93609,-5.10551 -2.95746,-5.85897 -0.004,-0.14552 -0.29063,-0.95961 -0.63666,-1.80909 l -0.62916,-1.5445 -0.8628,1.07363 c -0.47454,0.5905 -0.98316,0.99924 -1.13028,0.90831 -0.15712,-0.0971 -0.18535,-0.0324 -0.0684,0.15682 0.24356,0.39409 -0.6085,1.40184 -0.98732,1.16771 -0.14855,-0.0918 -0.19613,-0.0472 -0.10572,0.099 0.20274,0.32804 -1.07585,2.09253 -1.44347,1.99205 -0.14629,-0.04 -0.20156,0.0315 -0.12281,0.15895 0.0787,0.12741 -0.15923,0.63637 -0.52883,1.13103 -0.3696,0.49466 -1.68099,2.59956 -2.9142,4.67754 -1.38605,2.3355 -2.35405,3.70904 -2.5351,3.59714 -0.17507,-0.1082 -0.2183,-0.0603 -0.10748,0.11898 0.47347,0.7661 -1.50736,2.38979 -4.84128,3.96841 -0.81404,0.38545 -1.52342,0.72597 -1.5764,0.75672 -0.18897,0.10965 2.45072,3.69073 4.40392,5.9745 1.09268,1.27761 1.93969,2.35008 1.88225,2.38326 -0.0574,0.0332 -0.45045,0.23893 -0.87336,0.45721 -0.48479,0.25022 -0.8952,0.76352 -1.11063,1.38906 l -0.34169,0.99219 3.35958,-0.004 c 1.84778,-0.002 3.61773,-0.0729 3.93324,-0.15748 z M 71.3399,258.1943 c 1.70557,-0.7911 3.54551,-1.57762 4.08876,-1.74782 1.42759,-0.44725 2.42498,-2.04923 4.28716,-6.88593 0.78108,-2.02872 1.23896,-2.79423 2.37386,-3.96875 1.40399,-1.45302 3.66484,-4.41598 5.06092,-6.6326 0.4062,-0.64493 0.90531,-1.2957 1.10914,-1.44615 0.31116,-0.22966 0.31812,-0.5584 0.0434,-2.04951 l -0.32723,-1.77596 -0.63432,0.8915 c -0.34887,0.49032 -1.58821,1.64285 -2.75409,2.56118 -1.84668,1.45458 -2.25233,1.93334 -3.14871,3.71614 -1.26761,2.52115 -2.32692,3.44746 -5.27804,4.61535 -1.38795,0.54928 -2.45155,1.15276 -2.77812,1.5763 -1.62258,2.10434 -2.15459,2.52732 -3.96875,3.15539 -1.01865,0.35266 -2.59365,0.97736 -3.49999,1.38822 l -1.64791,0.74702 1.80151,2.41175 c 1.6842,2.2547 1.76871,2.43223 1.29783,2.7263 -0.5373,0.33555 -1.56872,2.37964 -1.36614,2.70743 0.16707,0.27032 1.69644,-0.2995 5.34075,-1.98986 z m 47.01704,-1.91985 c 0.73966,-0.73966 0.39844,-1.49623 -0.83534,-1.85221 -1.36159,-0.39286 -2.79102,-1.41509 -2.61612,-1.87087 0.0715,-0.18625 -0.0124,-0.3103 -0.1864,-0.27566 -1.34231,0.26719 -1.37912,-0.36494 -1.45622,-25.0063 l -0.0718,-22.95261 H 91.3969 c -20.10001,0 -21.8073,0.0343 -21.96342,0.44112 -0.38481,1.00281 -0.12813,1.01475 21.2501,0.98826 l 20.84637,-0.0258 -0.009,22.13394 -0.009,22.13393 0.6104,1.63221 c 1.05046,2.80889 5.07488,5.81328 6.23413,4.65402 z m -58.4431,-4.20072 c 0.42282,-0.364 1.15373,-0.8449 1.62427,-1.06867 1.2761,-0.60686 4.636,-2.62138 5.90395,-3.53988 0.6125,-0.44369 1.81866,-1.00453 2.68034,-1.24631 1.21856,-0.34191 1.65203,-0.60463 1.95076,-1.18232 0.59513,-1.15085 4.58711,-3.49788 5.46872,-3.21526 0.29811,0.0956 0.65594,-0.74891 0.86878,-2.05032 0.1071,-0.65485 0.42027,-1.63568 0.69593,-2.17963 0.48204,-0.95116 0.96924,-1.38386 4.84456,-4.30266 1.00525,-0.75713 2.36124,-2.13983 3.17057,-3.23301 l 1.41411,-1.9101 1.00924,2.6906 1.00924,2.69059 3.61426,3.73813 c 3.56944,3.69176 3.62343,3.76566 4.35377,5.95867 0.6368,1.91212 0.94511,2.42375 2.21968,3.68346 l 1.48016,1.46291 0.0681,-17.30623 c 0.0375,-9.51843 -0.002,-17.37655 -0.0875,-17.4625 -0.0855,-0.0859 -1.55607,-0.19558 -3.26785,-0.24363 l -3.11232,-0.0874 -0.67827,0.80607 c -0.37304,0.44333 -1.37392,1.88933 -2.22418,3.21332 -6.68388,10.4079 -9.37906,13.63769 -13.62451,16.3271 -1.9425,1.23053 -4.12714,2.73446 -4.85474,3.34205 -2.50971,2.09577 -4.37679,3.36572 -4.67622,3.18066 -0.18948,-0.11711 -0.22707,-0.0671 -0.10185,0.13553 0.12307,0.19914 -0.33889,0.89806 -1.21589,1.8396 -0.77791,0.83515 -1.87813,2.09182 -2.44495,2.79261 -0.56682,0.70079 -1.81697,1.78292 -2.77812,2.40475 -1.64619,1.06501 -2.54702,2.07039 -3.97061,4.43146 -0.69236,1.14832 -0.43758,1.27575 0.66055,0.33037 z m 2.22964,-7.34182 c 2.36174,-3.4238 3.83808,-5.39637 4.94541,-6.60766 0.62841,-0.68741 2.05676,-2.65194 3.17411,-4.36562 1.11735,-1.71368 2.52399,-3.65157 3.12588,-4.30641 0.60188,-0.65485 1.66082,-1.9943 2.35318,-2.97656 1.53401,-2.17629 5.3066,-5.28834 9.19389,-7.58412 3.25632,-1.92314 3.37036,-2.01048 4.1749,-3.19765 0.34517,-0.50933 0.98751,-1.31122 1.42741,-1.78198 1.03865,-1.1115 1.38134,-1.0498 -4.88604,-0.87969 l -5.45746,0.14812 -2.7451,4.10105 c -1.50981,2.25557 -3.25963,4.90634 -3.88849,5.89061 -0.66533,1.04133 -1.263,1.71564 -1.42947,1.61276 -0.16846,-0.10411 -0.20985,-0.0535 -0.10066,0.12319 0.25442,0.41167 -0.32519,1.4271 -0.68697,1.20351 -0.17258,-0.10666 -0.21757,-0.0598 -0.10991,0.11435 0.2391,0.38688 -2.20562,4.05854 -2.55752,3.84105 -0.15329,-0.0947 -0.19035,-0.0374 -0.0855,0.13228 0.10181,0.16473 -0.24282,0.96847 -0.76584,1.7861 -1.02456,1.60163 -1.15433,1.6376 -3.11325,0.8631 l -0.73304,-0.28982 1.16219,-2.14846 c 0.63921,-1.18166 1.89039,-3.27956 2.78041,-4.66201 0.89002,-1.38245 2.2297,-3.52557 2.97708,-4.7625 0.74737,-1.23692 2.12524,-3.41232 3.06192,-4.83421 1.74702,-2.65199 1.97999,-3.63245 0.86311,-3.63245 -0.51269,0 -0.90376,0.52016 -2.68545,3.57187 -0.50976,0.87313 -1.07225,1.55479 -1.24999,1.5148 -0.17773,-0.04 -0.24806,0.0488 -0.15629,0.19729 0.0918,0.14849 -0.23821,0.89558 -0.7333,1.6602 -0.4951,0.76462 -1.16682,1.83744 -1.49272,2.38405 -0.32971,0.55301 -0.71801,0.91629 -0.8754,0.81901 -0.16423,-0.1015 -0.20595,-0.0503 -0.0995,0.12195 0.2257,0.36518 -9.28713,14.78762 -10.88791,16.50721 -0.84884,0.91184 -0.64208,1.4819 1.52258,4.19787 0.85361,1.07101 1.48281,2.05928 1.39822,2.19615 -0.0846,0.13687 -0.0298,0.17224 0.12168,0.0786 0.15152,-0.0936 0.42262,0.007 0.60245,0.2237 0.50108,0.60377 0.63058,0.51585 1.85534,-1.25968 z M 43.46446,231.007 c -0.21807,-0.35285 0.45314,-1.68159 3.45594,-6.8414 2.41635,-4.1521 3.06958,-5.49598 3.33247,-6.85587 0.35256,-1.82375 1.59054,-4.39015 4.83621,-10.02573 1.11343,-1.93331 2.44627,-4.31456 2.96186,-5.29167 1.67431,-3.17304 3.34582,-6.00777 3.59795,-6.10178 0.15172,-0.0566 0.1511,-0.20908 -0.002,-0.39687 -0.13641,-0.16775 -0.50545,-1.1744 -0.82009,-2.237 -0.9393,-3.17209 -2.12899,-5.43958 -2.12899,-4.05771 0,0.17932 -2.93677,5.68285 -4.60807,8.63554 -2.85135,5.0375 -9.29312,14.26167 -9.75877,13.97388 -0.15834,-0.0978 -0.18442,-0.0314 -0.0641,0.16331 0.12504,0.20232 -0.10906,0.6502 -0.60993,1.16697 l -0.81285,0.83865 -0.0768,8.64223 c -0.0707,7.96002 -0.0417,8.63958 0.3679,8.60857 0.24458,-0.0185 0.39256,-0.11802 0.32884,-0.22112 z m 12.18139,-16.70218 c 0.60848,-0.61846 2.2288,-2.13304 3.60071,-3.36574 3.09739,-2.78309 6.86251,-6.60913 9.63812,-9.79409 1.16417,-1.33585 2.24964,-2.57307 2.41216,-2.74937 0.98861,-1.07243 3.39365,-5.49479 4.33565,-7.97232 0.60802,-1.59915 1.21011,-3.08613 1.33798,-3.30441 0.52329,-0.89329 0.18715,0.35637 -0.80975,3.01041 -1.87744,4.99827 -0.87416,6.40114 4.4372,6.20453 4.0397,-0.14953 4.57784,-1.00791 2.86193,-4.565 -1.90412,-3.94725 -4.41405,-9.41988 -5.15259,-11.23469 -0.79034,-1.94209 -2.41218,-4.36196 -2.71054,-4.04426 -0.0919,0.0979 -1.14516,2.08297 -2.34054,4.4113 -2.09724,4.08495 -6.63629,12.35423 -8.27819,15.08125 -0.43808,0.7276 -2.03772,3.40651 -3.55475,5.95312 -1.51704,2.54662 -2.87869,4.5975 -3.02588,4.55751 -0.1472,-0.04 -0.19143,0.0506 -0.0983,0.20133 0.0931,0.15071 -0.24224,0.95734 -0.74531,1.79249 -0.71301,1.1837 -3.02631,5.55196 -3.57141,6.74399 -0.27085,0.59229 0.70308,0.0501 1.66349,-0.92605 z m 45.81057,-23.2671 c -0.65736,-2.22812 -1.61359,-5.17589 -2.12496,-6.5506 -1.63104,-4.38466 -1.01433,-3.58219 1.14651,1.49185 0.75554,1.77414 1.94345,4.27446 2.63981,5.55625 0.69636,1.2818 1.47557,2.77212 1.73159,3.31184 l 0.46547,0.98129 5.0024,0.077 c 5.51228,0.0849 5.41397,0.11306 4.00626,-1.14787 -0.54756,-0.49047 -1.76795,-1.83491 -2.71198,-2.98765 -0.94404,-1.15275 -2.14006,-2.5815 -2.65784,-3.175 -0.83899,-0.96169 -3.56064,-4.33615 -9.0862,-11.26556 -0.98633,-1.23693 -1.99112,-2.48371 -2.23286,-2.77063 -0.24174,-0.28691 -0.63595,-0.80741 -0.87602,-1.15665 -0.42936,-0.6246 -0.44118,-0.62624 -0.72266,-0.10027 -0.45284,0.84612 -2.52452,6.83607 -3.45976,10.00332 -0.46899,1.58827 -0.94528,2.98511 -1.05843,3.10409 -0.40433,0.42517 2.22669,-10.20273 3.06479,-12.38008 0.24485,-0.63611 0.29275,-0.67367 -5.67041,4.44708 -4.10918,3.52868 -4.25722,3.69054 -4.11416,4.49791 0.45634,2.57525 1.13257,5.68719 1.36388,6.27633 1.143,2.9113 9.9368,8.67491 9.22424,6.04573 -0.0949,-0.35014 -0.23045,-1.47006 -0.30124,-2.48871 l -0.1287,-1.85208 0.36524,1.98437 c 0.57275,3.11184 0.26942,2.88384 3.94948,2.96862 3.92321,0.0904 3.75788,0.45884 2.18555,-4.87062 z m 32.21679,91.47923 c -1.62607,-0.70765 -1.31085,-1.57365 2.41341,-6.63036 6.05888,-8.22658 7.95482,-13.11997 7.2528,-18.71927 -0.64044,-5.1081 -2.56114,-8.41801 -8.55951,-14.75052 -7.14947,-7.54772 -8.18219,-8.74683 -9.16262,-10.63894 -1.31136,-2.53076 0.34629,-4.06676 1.76897,-1.63914 0.39183,0.66862 1.22625,1.81762 1.85425,2.55335 0.628,0.73572 1.08015,1.43746 1.00477,1.55942 -0.0754,0.12197 0.0224,0.16056 0.21731,0.0858 0.20666,-0.0793 0.90163,0.49879 1.66739,1.38697 0.72216,0.83762 2.77367,3.02929 4.55889,4.87038 12.64339,13.03903 13.10298,20.59695 2.20873,36.32227 -2.70084,3.89852 -2.76322,4.02116 -2.58954,5.09142 0.16634,1.02505 -0.95209,1.24096 -2.63485,0.50865 z"
       id="path314" />
  </g>
</svg>
